<svg width="16" height="17" viewBox="0 0 16 17" fill="none" xmlns="http://www.w3.org/2000/svg">
<g opacity="0.5" filter="url(#filter0_d_1_161)">
<mask id="path-1-inside-1_1_161" fill="white">
<path fill-rule="evenodd" clip-rule="evenodd" d="M12 5V1H16V5H12ZM12 7V11H16V7H12ZM0 17V13H4V17H0ZM6 13V17H10V13H6ZM12 13V17H16V13H12ZM6 11V7H10V11H6ZM0 7V11H4V7H0ZM6 1V5H10V1H6ZM0 5V1H4V5H0Z"/>
</mask>
<path fill-rule="evenodd" clip-rule="evenodd" d="M12 5V1H16V5H12ZM12 7V11H16V7H12ZM0 17V13H4V17H0ZM6 13V17H10V13H6ZM12 13V17H16V13H12ZM6 11V7H10V11H6ZM0 7V11H4V7H0ZM6 1V5H10V1H6ZM0 5V1H4V5H0Z" fill="url(#paint0_linear_1_161)"/>
<path d="M12 1V0.5H11.5V1H12ZM12 5H11.5V5.5H12V5ZM16 1H16.5V0.5H16V1ZM16 5V5.5H16.5V5H16ZM12 11H11.5V11.5H12V11ZM12 7V6.5H11.5V7H12ZM16 11V11.5H16.5V11H16ZM16 7H16.5V6.5H16V7ZM0 13V12.5H-0.5V13H0ZM0 17H-0.5V17.5H0V17ZM4 13H4.5V12.5H4V13ZM4 17V17.5H4.5V17H4ZM6 17H5.5V17.5H6V17ZM6 13V12.5H5.5V13H6ZM10 17V17.5H10.5V17H10ZM10 13H10.5V12.5H10V13ZM12 17H11.5V17.5H12V17ZM12 13V12.5H11.5V13H12ZM16 17V17.5H16.5V17H16ZM16 13H16.5V12.5H16V13ZM6 7V6.5H5.5V7H6ZM6 11H5.5V11.5H6V11ZM10 7H10.5V6.5H10V7ZM10 11V11.5H10.5V11H10ZM0 11H-0.5V11.5H0V11ZM0 7V6.5H-0.5V7H0ZM4 11V11.5H4.5V11H4ZM4 7H4.5V6.5H4V7ZM6 5H5.5V5.5H6V5ZM6 1V0.5H5.5V1H6ZM10 5V5.5H10.5V5H10ZM10 1H10.5V0.5H10V1ZM0 1V0.5H-0.5V1H0ZM0 5H-0.5V5.5H0V5ZM4 1H4.5V0.5H4V1ZM4 5V5.5H4.5V5H4ZM11.5 1V5H12.5V1H11.5ZM16 0.5H12V1.5H16V0.5ZM16.5 5V1H15.5V5H16.5ZM12 5.5H16V4.5H12V5.5ZM12.5 11V7H11.5V11H12.5ZM16 10.5H12V11.5H16V10.5ZM15.5 7V11H16.5V7H15.5ZM12 7.5H16V6.5H12V7.5ZM-0.5 13V17H0.5V13H-0.5ZM4 12.5H0V13.5H4V12.5ZM4.5 17V13H3.5V17H4.5ZM0 17.5H4V16.5H0V17.5ZM6.5 17V13H5.5V17H6.5ZM10 16.5H6V17.5H10V16.5ZM9.5 13V17H10.5V13H9.5ZM6 13.5H10V12.5H6V13.5ZM12.5 17V13H11.5V17H12.5ZM16 16.5H12V17.5H16V16.5ZM15.5 13V17H16.5V13H15.5ZM12 13.5H16V12.5H12V13.5ZM5.5 7V11H6.5V7H5.5ZM10 6.5H6V7.5H10V6.5ZM10.5 11V7H9.5V11H10.5ZM6 11.5H10V10.5H6V11.5ZM0.5 11V7H-0.5V11H0.5ZM4 10.5H0V11.5H4V10.5ZM3.5 7V11H4.5V7H3.5ZM0 7.5H4V6.5H0V7.5ZM6.5 5V1H5.5V5H6.5ZM10 4.5H6V5.5H10V4.5ZM9.5 1V5H10.5V1H9.5ZM6 1.5H10V0.5H6V1.5ZM-0.5 1V5H0.5V1H-0.5ZM4 0.5H0V1.5H4V0.5ZM4.5 5V1H3.5V5H4.5ZM0 5.5H4V4.5H0V5.5Z" fill="white" fill-opacity="0.1" mask="url(#path-1-inside-1_1_161)"/>
</g>
<defs>
<filter id="filter0_d_1_161" x="0" y="0.5" width="16" height="16.5" filterUnits="userSpaceOnUse" color-interpolation-filters="sRGB">
<feFlood flood-opacity="0" result="BackgroundImageFix"/>
<feColorMatrix in="SourceAlpha" type="matrix" values="0 0 0 0 0 0 0 0 0 0 0 0 0 0 0 0 0 0 127 0" result="hardAlpha"/>
<feOffset dy="-0.5"/>
<feColorMatrix type="matrix" values="0 0 0 0 0 0 0 0 0 0 0 0 0 0 0 0 0 0 0.2 0"/>
<feBlend mode="normal" in2="BackgroundImageFix" result="effect1_dropShadow_1_161"/>
<feBlend mode="normal" in="SourceGraphic" in2="effect1_dropShadow_1_161" result="shape"/>
</filter>
<linearGradient id="paint0_linear_1_161" x1="0" y1="1" x2="0" y2="17" gradientUnits="userSpaceOnUse">
<stop stop-color="white" stop-opacity="0.9"/>
<stop offset="0.3" stop-color="white" stop-opacity="0.875"/>
<stop offset="1" stop-color="white" stop-opacity="0.85"/>
</linearGradient>
</defs>
</svg>
