<svg width="24" height="24" viewBox="0 0 24 24" fill="none" xmlns="http://www.w3.org/2000/svg">
<mask id="mask0_1_114" style="mask-type:alpha" maskUnits="userSpaceOnUse" x="-1" y="0" width="25" height="24">
<path fill-rule="evenodd" clip-rule="evenodd" d="M24 12C24 18.627 18.627 23.999 12 23.999C5.37299 23.999 -0.00100708 18.627 -0.00100708 12C-0.00100708 5.373 5.37299 0 12 0C18.627 0 24 5.373 24 12Z" fill="white"/>
</mask>
<g mask="url(#mask0_1_114)">
<g filter="url(#filter0_ii_1_114)">
<path fill-rule="evenodd" clip-rule="evenodd" d="M24 12C24 18.627 18.627 23.999 12 23.999C5.37299 23.999 -0.00100708 18.627 -0.00100708 12C-0.00100708 5.373 5.37299 0 12 0C18.627 0 24 5.373 24 12Z" fill="#3B78E7"/>
<path fill-rule="evenodd" clip-rule="evenodd" d="M24 12C24 18.627 18.627 23.999 12 23.999C5.37299 23.999 -0.00100708 18.627 -0.00100708 12C-0.00100708 5.373 5.37299 0 12 0C18.627 0 24 5.373 24 12Z" fill="url(#paint0_radial_1_114)" fill-opacity="0.08"/>
</g>
<path fill-rule="evenodd" clip-rule="evenodd" d="M11.525 11.896C11.525 12.522 11.906 12.935 12.212 13.282C11.302 13.342 9.59999 13.555 8.34599 14.322C7.15099 15.034 6.77499 16.083 6.77499 16.811C6.77499 17.3932 6.99038 17.9592 7.42578 18.4338C8.11148 19.1813 12.9573 24 12.9573 24H24.35V12L16.35 4H12.192C9.28499 4 7.79999 5.798 7.79999 7.804C7.79999 9.356 8.99699 11 11.125 11C11.296 11 11.675 11 11.675 11C11.598 12 11.525 11.614 11.525 11.896Z" fill="url(#paint1_linear_1_114)"/>
<g filter="url(#filter1_ddi_1_114)">
<path fill-rule="evenodd" clip-rule="evenodd" d="M11.525 11.896C11.525 12.522 11.906 12.935 12.212 13.282C11.302 13.342 9.59999 13.555 8.34599 14.322C7.15099 15.034 6.77499 16.083 6.77499 16.811C6.77499 18.31 8.20299 19.702 11.138 19.702C14.621 19.702 16.475 17.798 16.475 15.897C16.475 14.495 15.652 13.812 14.763 13.063L14.034 12.5C13.812 12.317 13.425 12.076 13.425 11.631C13.425 11.184 13.735 10.843 13.996 10.64C14.867 9.963 15.699 9.168 15.699 7.673C15.699 6.258 14.851 5.999 14.349 5H15.5L16.35 4H12.192C9.28499 4 7.79999 5.798 7.79999 7.804C7.79999 9.356 8.99699 11 11.125 11C11.296 11 11.675 11 11.675 11C11.598 12 11.525 11.614 11.525 11.896ZM12.066 10.7561C10.38 10.7561 9.46298 8.7061 9.46298 7.1461C9.46298 5.6661 10.359 4.9751 11.298 4.9751C13.104 4.9751 14.038 7.3061 14.038 8.7031C14.038 10.4261 12.624 10.7561 12.066 10.7561ZM12.134 18.85C9.96899 18.85 8.52499 17.813 8.52499 16.375C8.52499 14.941 9.86399 14.456 10.31 14.292C11.16 14.008 12.253 13.97 12.439 13.97C12.638 13.97 12.739 13.97 12.9 13.987C14.44 15.089 15.087 15.63 15.087 16.663C15.087 17.816 14.072 18.85 12.134 18.85Z" fill="#F1F1F1"/>
</g>
</g>
<defs>
<filter id="filter0_ii_1_114" x="-0.00100708" y="0" width="24.001" height="23.999" filterUnits="userSpaceOnUse" color-interpolation-filters="sRGB">
<feFlood flood-opacity="0" result="BackgroundImageFix"/>
<feBlend mode="normal" in="SourceGraphic" in2="BackgroundImageFix" result="shape"/>
<feColorMatrix in="SourceAlpha" type="matrix" values="0 0 0 0 0 0 0 0 0 0 0 0 0 0 0 0 0 0 127 0" result="hardAlpha"/>
<feOffset dy="-0.125"/>
<feComposite in2="hardAlpha" operator="arithmetic" k2="-1" k3="1"/>
<feColorMatrix type="matrix" values="0 0 0 0 0.14902 0 0 0 0 0.196078 0 0 0 0 0.219608 0 0 0 0.16 0"/>
<feBlend mode="normal" in2="shape" result="effect1_innerShadow_1_114"/>
<feColorMatrix in="SourceAlpha" type="matrix" values="0 0 0 0 0 0 0 0 0 0 0 0 0 0 0 0 0 0 127 0" result="hardAlpha"/>
<feOffset dy="0.125"/>
<feComposite in2="hardAlpha" operator="arithmetic" k2="-1" k3="1"/>
<feColorMatrix type="matrix" values="0 0 0 0 1 0 0 0 0 1 0 0 0 0 1 0 0 0 0.24 0"/>
<feBlend mode="normal" in2="effect1_innerShadow_1_114" result="effect2_innerShadow_1_114"/>
</filter>
<filter id="filter1_ddi_1_114" x="6.77499" y="4" width="13.7" height="19.7019" filterUnits="userSpaceOnUse" color-interpolation-filters="sRGB">
<feFlood flood-opacity="0" result="BackgroundImageFix"/>
<feColorMatrix in="SourceAlpha" type="matrix" values="0 0 0 0 0 0 0 0 0 0 0 0 0 0 0 0 0 0 127 0" result="hardAlpha"/>
<feOffset dy="0.2"/>
<feColorMatrix type="matrix" values="0 0 0 0 0.14902 0 0 0 0 0.196078 0 0 0 0 0.219608 0 0 0 0.24 0"/>
<feBlend mode="normal" in2="BackgroundImageFix" result="effect1_dropShadow_1_114"/>
<feColorMatrix in="SourceAlpha" type="matrix" values="0 0 0 0 0 0 0 0 0 0 0 0 0 0 0 0 0 0 127 0" result="hardAlpha"/>
<feOffset dx="2" dy="2"/>
<feGaussianBlur stdDeviation="1"/>
<feColorMatrix type="matrix" values="0 0 0 0 0 0 0 0 0 0 0 0 0 0 0 0 0 0 0.08 0"/>
<feBlend mode="normal" in2="effect1_dropShadow_1_114" result="effect2_dropShadow_1_114"/>
<feBlend mode="normal" in="SourceGraphic" in2="effect2_dropShadow_1_114" result="shape"/>
<feColorMatrix in="SourceAlpha" type="matrix" values="0 0 0 0 0 0 0 0 0 0 0 0 0 0 0 0 0 0 127 0" result="hardAlpha"/>
<feOffset dy="0.2"/>
<feComposite in2="hardAlpha" operator="arithmetic" k2="-1" k3="1"/>
<feColorMatrix type="matrix" values="0 0 0 0 1 0 0 0 0 1 0 0 0 0 1 0 0 0 0.64 0"/>
<feBlend mode="normal" in2="shape" result="effect3_innerShadow_1_114"/>
</filter>
<radialGradient id="paint0_radial_1_114" cx="0" cy="0" r="1" gradientUnits="userSpaceOnUse" gradientTransform="translate(3.57221 3.50701) rotate(45.0459) scale(23.952)">
<stop offset="0.00434471" stop-color="white"/>
<stop offset="0.984076" stop-color="white" stop-opacity="0"/>
</radialGradient>
<linearGradient id="paint1_linear_1_114" x1="1.42918" y1="14.9083" x2="16.1611" y2="26.1536" gradientUnits="userSpaceOnUse">
<stop stop-opacity="0.16"/>
<stop offset="0.151341" stop-opacity="0.16"/>
<stop offset="0.322098" stop-opacity="0.08"/>
<stop offset="1" stop-opacity="0"/>
</linearGradient>
</defs>
</svg>
