<svg width="24" height="24" viewBox="0 0 24 24" fill="none" xmlns="http://www.w3.org/2000/svg">
<path fill-rule="evenodd" clip-rule="evenodd" d="M11.999 12V5.999H22.382C20.306 2.418 16.439 0 11.999 0C7.55701 0 3.68801 2.421 1.61301 6.008L6.80401 14.999L11.999 12" fill="#DB4437"/>
<path fill-rule="evenodd" clip-rule="evenodd" d="M11.999 5.99902V12L17.196 14.999L11.999 23.999C18.627 23.999 24 18.627 24 12C24 9.81202 23.404 7.76702 22.382 5.99902H11.999" fill="#FFCD40"/>
<path fill-rule="evenodd" clip-rule="evenodd" d="M11.999 12.0001L6.804 14.9991L1.613 6.00806C0.593 7.77406 0 9.81506 0 12.0001C0 18.6271 5.372 23.9991 11.999 23.9991L17.196 14.9991L11.999 12.0001" fill="#0F9D58"/>
<path fill-rule="evenodd" clip-rule="evenodd" d="M11.9947 23.9918L17.1847 15.0024L14.7858 13.6174L11.9947 23.9918Z" fill="url(#paint0_radial_1_144)"/>
<path fill-rule="evenodd" clip-rule="evenodd" d="M22.38 6L12 6V8.77002L22.38 6Z" fill="url(#paint1_radial_1_144)"/>
<path fill-rule="evenodd" clip-rule="evenodd" d="M11.999 0C11.968 0 11.937 0 11.907 0C11.897 0 11.887 0 11.877 0.001C11.854 0.001 11.831 0.001 11.807 0.001C11.799 0.002 11.791 0.002 11.783 0.002C11.719 0.003 11.655 0.005 11.591 0.007C11.586 0.007 11.581 0.007 11.576 0.007C11.546 0.008 11.516 0.01 11.487 0.011C11.484 0.011 11.481 0.011 11.479 0.011C7.25601 0.192 3.60601 2.562 1.61301 6.008L1.63001 6.037L1.97001 6.378C3.94301 2.873 7.69901 0.5 11.999 0.5C16.14 0.5 19.775 2.698 21.8 5.989H22.376C20.38 2.553 16.735 0.192 12.519 0.011C12.517 0.011 12.514 0.011 12.512 0.011C12.482 0.01 12.453 0.008 12.423 0.007C12.418 0.007 12.412 0.007 12.408 0.007C12.344 0.005 12.279 0.003 12.215 0.002C12.207 0.002 12.2 0.002 12.192 0.001C12.169 0.001 12.145 0.001 12.121 0.001C12.112 0 12.102 0 12.092 0C12.061 0 12.03 0 11.999 0" fill="#D24135"/>
<path fill-rule="evenodd" clip-rule="evenodd" d="M22.382 5.99902H22.347L21.882 6.12402C22.909 7.84502 23.5 9.85502 23.5 12C23.5 18.239 18.505 23.333 12.303 23.495L12.013 23.999C18.635 23.992 24 18.623 24 12C24 11.969 24 11.938 23.999 11.907C23.999 11.9 23.999 11.891 23.999 11.883C23.999 11.857 23.998 11.832 23.998 11.807C23.998 11.801 23.998 11.795 23.998 11.795C23.961 9.68002 23.371 7.70902 22.382 5.99902" fill="#F5C53D"/>
<path fill-rule="evenodd" clip-rule="evenodd" d="M1.607 6.01904C0.623 7.72604 0.038 9.68904 0.002 11.791C0.002 11.796 0.002 11.8 0.002 11.8C0.001 11.831 0.001 11.857 0.001 11.883C0.001 11.891 0.001 11.9 0.001 11.907C0 11.938 0 11.969 0 12C0 18.627 5.372 23.999 11.999 23.999L12.023 23.958L12.146 23.498C12.097 23.499 12.049 23.5 11.999 23.5C5.659 23.5 0.5 18.341 0.5 12C0.5 10.016 1.005 8.14704 1.894 6.51504L1.607 6.01904" fill="#0E9755"/>
<path fill-rule="evenodd" clip-rule="evenodd" d="M18 12C18 15.314 15.314 18 12 18C8.686 18 6 15.314 6 12C6 8.687 8.686 6 12 6C15.314 6 18 8.687 18 12" fill="#F1F1F1"/>
<path fill-rule="evenodd" clip-rule="evenodd" d="M16.4 12.0001C16.4 14.4301 14.43 16.4001 12 16.4001C9.57001 16.4001 7.60001 14.4301 7.60001 12.0001C7.60001 9.5701 9.57001 7.6001 12 7.6001C14.43 7.6001 16.4 9.5701 16.4 12.0001" fill="#4285F4"/>
<path fill-rule="evenodd" clip-rule="evenodd" d="M1.61652 5.99405L6.80652 14.9834L9.20543 13.5984L1.61652 5.99405Z" fill="url(#paint2_radial_1_144)"/>
<defs>
<radialGradient id="paint0_radial_1_144" cx="0" cy="0" r="1" gradientUnits="userSpaceOnUse" gradientTransform="translate(12.0435 12.0342) rotate(49.6348) scale(11.9448 40.0661)">
<stop stop-opacity="0.16"/>
<stop offset="1" stop-opacity="0.02"/>
</radialGradient>
<radialGradient id="paint1_radial_1_144" cx="0" cy="0" r="1" gradientUnits="userSpaceOnUse" gradientTransform="translate(12.2504 6.08474) scale(10.7496 2.93172)">
<stop stop-opacity="0.16"/>
<stop offset="1" stop-opacity="0.02"/>
</radialGradient>
<radialGradient id="paint2_radial_1_144" cx="0" cy="0" r="1" gradientUnits="userSpaceOnUse" gradientTransform="translate(1.61652 5.99405) rotate(60) scale(10.38 2.77002)">
<stop stop-opacity="0.16"/>
<stop offset="1" stop-opacity="0.02"/>
</radialGradient>
</defs>
</svg>
