<svg width="25" height="18" viewBox="0 0 25 18" fill="none" xmlns="http://www.w3.org/2000/svg">
<path fill-rule="evenodd" clip-rule="evenodd" d="M0 10.001C0 12.071 0.25 14.117 0.25 14.117C0.251 14.117 0.474 15.88 1.194 16.657C2.106 17.676 3.127 17.717 3.598 17.75C6.957 17.987 12 18 12 18C12 18 17.042 17.987 20.401 17.75C20.873 17.717 21.893 17.676 22.806 16.657C23.526 15.88 23.75 14.117 23.75 14.117C23.75 14.117 24 12.071 24 10.001V8C24 5.929 23.75 3.884 23.75 3.884C23.75 3.884 23.526 2.119 22.806 1.343C21.893 0.323 20.873 0.282 20.401 0.25C17.042 0.012 12 0 12 0C12 0 6.957 0.012 3.598 0.25C3.127 0.282 2.106 0.323 1.194 1.343C0.474 2.119 0.25 3.884 0.25 3.884C0.251 3.884 0 5.929 0 8V10.001Z" fill="#D50000"/>
<path fill-rule="evenodd" clip-rule="evenodd" d="M12 0C12 0 6.957 0.012 3.599 0.25C3.127 0.283 2.107 0.324 1.194 1.343C0.474 2.119 0.251 3.883 0.251 3.883C0.251 3.884 0 5.929 0 7.999C0 5.985 0.494 3.964 0.496 3.946C0.553 3.499 0.934 2.223 1.441 1.676C2.191 0.838 3.082 0.782 3.571 0.748C6.857 0.516 11.898 0.501 12 0.499C12.102 0.501 17.081 0.516 20.411 0.752C20.856 0.782 21.684 0.838 22.439 1.682C22.938 2.22 22.947 3.499 23.004 3.944C23.006 3.964 23 5.985 23 7.999V10C23 12.015 23.006 14.035 23.004 14.054C22.948 14.5 22.815 15.776 22.309 16.324C21.558 17.161 20.793 17.218 20.304 17.251C17.001 17.484 12.018 17.5 11.97 17.5C11.919 17.5 6.92 17.484 3.573 17.247C3.129 17.218 2.308 17.161 1.552 16.317C1.054 15.779 0.549 14.5 0.492 14.056C0.489 14.035 0 12.017 0 10V7.999V10C0 12.071 0.251 14.116 0.251 14.116C0.251 14.116 0.474 15.88 1.194 16.657C2.107 17.677 3.127 17.716 3.599 17.749C6.957 17.987 12 18 12 18C12 18 17.044 17.987 20.401 17.749C20.873 17.716 21.893 17.677 22.806 16.657C23.525 15.88 23.75 14.116 23.75 14.116C23.75 14.116 24 12.071 24 10V7.999C24 5.929 23.75 3.883 23.75 3.883C23.75 3.884 23.525 2.119 22.806 1.343C21.893 0.324 20.873 0.283 20.401 0.25C17.044 0.012 12 0 12 0Z" fill="#C40000"/>
<path opacity="0.5" fill-rule="evenodd" clip-rule="evenodd" d="M15.0099 17.9687L24.9701 17.9754L15.9876 8.99292L10.0251 12.984L15.0099 17.9687Z" fill="url(#paint0_linear_1_156)"/>
<path fill-rule="evenodd" clip-rule="evenodd" d="M10 13L16 9L10 5V13Z" fill="#EEEEEE"/>
<defs>
<linearGradient id="paint0_linear_1_156" x1="9.38899" y1="10.8669" x2="10.6803" y2="17.4261" gradientUnits="userSpaceOnUse">
<stop stop-opacity="0.16"/>
<stop offset="0.327577" stop-opacity="0.09"/>
<stop offset="1" stop-opacity="0.02"/>
</linearGradient>
</defs>
</svg>
